<svg width="16" height="16" viewBox="0 0 16 16" fill="none" xmlns="http://www.w3.org/2000/svg">
<g clip-path="url(#clip0_0_1249)">
<path d="M0.690037 5.12254C0.36214 5.54078 0.204884 5.98913 0.224959 6.45086C0.245034 6.95943 0.472554 7.35759 0.659924 7.60184C0.442441 8.14387 0.358795 8.99707 1.08485 9.65956C1.61685 10.1447 2.52023 10.3622 3.77159 10.302C4.65156 10.2618 5.38765 10.0979 5.41777 10.0912H5.42111C5.58841 10.0611 5.76574 10.0243 5.94641 9.98411C5.9598 10.1982 5.92299 10.7302 5.52818 11.9281C5.05976 13.3534 5.08652 14.4442 5.61517 15.1736C6.17059 15.9398 7.05725 16 7.31823 16C7.56917 16 7.80003 15.8963 7.96398 15.7056C8.33537 15.2739 8.29188 14.4776 8.24504 14.1096C8.68669 12.9251 9.92467 10.0209 10.9719 9.21455C10.992 9.20117 11.0087 9.18444 11.0255 9.16771C11.3333 8.84316 11.5407 8.49184 11.6813 8.18402C11.8787 8.29109 12.1028 8.35132 12.3437 8.35132H14.3847C15.1543 8.35132 15.7766 7.72564 15.7766 6.95943L15.7766 1.52238C15.7766 0.752823 15.1509 0.13049 14.3847 0.13049H12.3437C12.046 0.13049 11.7682 0.224174 11.5407 0.384776L10.7544 0.291092C10.634 0.274363 8.49263 0.00334644 6.29439 0.0468435C5.89623 0.0167303 5.52149 0 5.17352 0C4.5746 0 4.05265 0.0468426 3.61768 0.140528C2.59384 0.358009 1.89455 0.792974 1.53989 1.43204C1.26887 1.92054 1.26887 2.40569 1.31237 2.71351C0.64654 3.31577 0.529435 3.9816 0.552856 4.45002C0.566239 4.72104 0.626465 4.9519 0.690037 5.12254ZM14.3847 1.03388C14.6557 1.03388 14.8732 1.25471 14.8732 1.52238L14.8732 6.96278C14.8732 7.23379 14.6524 7.45128 14.3847 7.45128H12.3437C12.0727 7.45128 11.8552 7.23045 11.8552 6.96278L11.8552 1.52572C11.8552 1.25471 12.0761 1.03722 12.3437 1.03722H14.3847V1.03388ZM1.54658 5.51401C1.68711 5.36679 1.71388 5.14262 1.60681 4.96863C1.60681 4.96529 1.46963 4.73108 1.4529 4.40987C1.42948 3.97156 1.64027 3.58344 2.08192 3.2522C2.23918 3.13174 2.30275 2.9243 2.23583 2.73693C2.23583 2.73358 2.09196 2.29193 2.32617 1.87369C2.55035 1.47219 3.04888 1.18444 3.80505 1.02384C4.41066 0.893351 5.23374 0.869929 6.2442 0.950231H6.29104C8.44244 0.903389 10.6173 1.18444 10.6407 1.18779H10.644L10.982 1.22794C10.9619 1.32162 10.9519 1.422 10.9519 1.52238L10.9519 6.96278C10.9519 7.10665 10.9753 7.24718 11.0154 7.37767C10.9552 7.60184 10.7879 8.10038 10.3931 8.5253C8.89079 9.71644 7.42195 13.7348 7.35838 13.9088C7.33161 13.9791 7.32492 14.056 7.3383 14.133C7.39518 14.5077 7.37511 14.9661 7.29481 15.1033C7.11747 15.1 6.63901 15.0498 6.35127 14.6516C6.00999 14.1798 6.02337 13.3367 6.39142 12.2192C6.95352 10.5161 7.00037 9.61941 6.55536 9.22459C6.33454 9.02719 6.0401 9.01715 5.82596 9.0941C5.62186 9.14095 5.4278 9.1811 5.24378 9.21121C5.2304 9.21455 5.21367 9.2179 5.20028 9.22125C4.1731 9.44542 2.33286 9.5826 1.6938 9.00042C1.15177 8.50523 1.53654 7.84944 1.58004 7.77917C1.70384 7.5918 1.66703 7.34755 1.49974 7.19699C1.49639 7.19364 1.14508 6.8624 1.12835 6.4174C1.11496 6.11962 1.25549 5.81514 1.54658 5.51401Z" fill="#AB470E"/>
</g>
<defs>
<clipPath id="clip0_0_1249">
<rect width="16" height="16" fill="white" transform="matrix(-1 0 0 -1 16 16)"/>
</clipPath>
</defs>
</svg>
