<svg width="30" height="30" viewBox="0 0 30 30" fill="none" xmlns="http://www.w3.org/2000/svg">
<g clip-path="url(#clip0_0_779)">
<path d="M14.2666 25.1242C14.2666 23.5687 13.0288 22.3079 11.502 22.3079C9.97488 22.3079 8.73699 23.5688 8.73699 25.1239C8.73699 26.6793 9.97488 27.9403 11.502 27.9403C13.028 27.9386 14.265 26.6788 14.2666 25.1241V25.1242ZM9.71773 25.1242C9.71773 24.1203 10.5163 23.3068 11.502 23.3068C12.4873 23.3068 13.286 24.1203 13.286 25.1239C13.286 26.1278 12.4873 26.9414 11.502 26.9414C10.5169 26.9403 9.71878 26.1273 9.71766 25.1241L9.71773 25.1242ZM21.7399 27.9403C23.267 27.9405 24.5049 26.6797 24.5049 25.1241C24.5052 23.5687 23.2673 22.3079 21.7401 22.3079C20.2129 22.3079 18.9753 23.5687 18.9753 25.1242C18.9772 26.6785 20.2137 27.9383 21.74 27.9403H21.7399ZM21.7399 23.3068C22.7252 23.3068 23.5243 24.1203 23.5243 25.1239C23.5245 26.1275 22.7255 26.9414 21.7401 26.9414C20.7548 26.9414 19.9559 26.1278 19.9559 25.1241C19.957 24.1211 20.7551 23.3082 21.7399 23.3068ZM0.57367 0.998904H3.56472C4.54889 0.99498 5.38807 1.72495 5.53804 2.71598L7.90566 17.9498C8.12925 19.4269 9.38031 20.5152 10.8477 20.5094H25.4828C25.6114 20.5072 25.734 20.4536 25.8242 20.3602C25.9144 20.2667 25.9649 20.141 25.9649 20.01C25.9649 19.8789 25.9144 19.7532 25.8242 19.6597C25.734 19.5663 25.6114 19.5127 25.4828 19.5105H10.8477C9.8635 19.5144 9.02433 18.7842 8.87435 17.7934L8.47186 15.2034H23.4607C24.7299 15.2028 25.8594 14.384 26.2752 13.163L29.0562 4.988C29.0819 4.91274 29.0895 4.83229 29.0785 4.7534C29.0674 4.6745 29.038 4.59945 28.9926 4.53451C28.9473 4.46957 28.8873 4.41663 28.8178 4.38013C28.7482 4.34362 28.6711 4.32461 28.5929 4.32468H6.78083L6.50673 2.55965C6.28314 1.08252 5.03222 -0.00582711 3.56472 2.34754e-05H0.57367C0.44506 0.00223782 0.322453 0.055831 0.232271 0.149253C0.142089 0.242675 0.0915527 0.368447 0.0915527 0.499464C0.0915527 0.63048 0.142089 0.756252 0.232271 0.849674C0.322453 0.943096 0.44506 0.99669 0.57367 0.998904ZM27.9039 5.32384L25.3488 12.8358C25.2126 13.2354 24.9577 13.582 24.6193 13.8272C24.281 14.0725 23.876 14.2044 23.4607 14.2045H8.31642L6.93599 5.32356L27.9039 5.32384Z" fill="black"/>
</g>
<defs>
<clipPath id="clip0_0_779">
<rect width="29" height="29.5385" fill="white" transform="translate(0.083252)"/>
</clipPath>
</defs>
</svg>
