<svg width="16" height="16" viewBox="0 0 16 16" fill="none" xmlns="http://www.w3.org/2000/svg">
<g clip-path="url(#clip0_0_1239)">
<path d="M7.33334 5.33887V3C7.33334 2.44856 6.88478 2 6.33334 2C6.08528 2 5.84572 2.09506 5.66016 2.26759L5.22981 2.66572C3.81381 3.97591 1.44337 6.16862 0.230469 7.38509C0.0820312 7.53484 0 7.75294 0 8C0 8.24706 0.0820312 8.46516 0.230469 8.61525C1.44337 9.83141 3.81381 12.0241 5.22981 13.3343L5.66016 13.7324C5.84572 13.905 6.08528 14 6.33334 14C6.88478 14 7.33334 13.5515 7.33334 13V10.669C12.1335 10.7363 15.3333 12.2503 15.3333 13.6667C15.3333 13.7105 15.3419 13.7538 15.3587 13.7943C15.3754 13.8347 15.4 13.8715 15.4309 13.9025C15.4619 13.9334 15.4986 13.958 15.5391 13.9747C15.5795 13.9915 15.6229 14.0001 15.6667 14C15.7105 14.0001 15.7538 13.9915 15.7943 13.9747C15.8347 13.958 15.8715 13.9334 15.9025 13.9025C15.9334 13.8715 15.958 13.8347 15.9747 13.7943C15.9915 13.7538 16.0001 13.7105 16 13.6667C16 9.17481 12.1426 5.50162 7.33334 5.33887ZM7 10C6.95622 9.99997 6.91286 10.0086 6.8724 10.0253C6.83194 10.0421 6.79519 10.0666 6.76423 10.0976C6.73327 10.1285 6.70871 10.1653 6.69197 10.2057C6.67523 10.2462 6.66663 10.2896 6.66666 10.3333V13C6.66666 13.1839 6.51691 13.3333 6.33331 13.3333C6.23175 13.3333 6.15753 13.2845 6.11325 13.2435L5.68291 12.8451C4.27019 11.5381 1.90625 9.35125 0.703125 8.14484C0.684906 8.12663 0.666656 8.07453 0.666656 8C0.666656 7.92547 0.684875 7.87337 0.703125 7.85547C1.90625 6.64875 4.27019 4.46191 5.68294 3.15494L6.11328 2.7565C6.15756 2.71547 6.23178 2.66666 6.33334 2.66666C6.51694 2.66666 6.66669 2.81606 6.66669 3V5.66666C6.66666 5.71044 6.67526 5.7538 6.692 5.79426C6.70875 5.83471 6.7333 5.87147 6.76426 5.90243C6.79522 5.93339 6.83198 5.95794 6.87243 5.97468C6.91289 5.99143 6.95625 6.00003 7.00003 6C11.0078 6 14.364 8.61653 15.1563 12.0902C13.7337 10.8441 10.6537 10 7 10Z" fill="#AB470E"/>
</g>
<defs>
<clipPath id="clip0_0_1239">
<rect width="16" height="16" fill="white"/>
</clipPath>
</defs>
</svg>
