<svg width="95" height="75" viewBox="0 0 95 75" fill="none" xmlns="http://www.w3.org/2000/svg">
<path d="M75.1972 0L95 54.661H88.8451L93.1268 66.5254H84.2958L87.507 75H29.849L24.3521 46.1864L30.7746 72.0339H83.4929L81.6197 66.5254H32.9155L23.5493 32.6271L33.7183 61.8644H88.5774L85.9014 54.661H34.5211L14.7183 0H75.1972Z" fill="#DD6F30"/>
<path d="M17.3944 27.5424H19V36.0169H17.3944V27.5424Z" fill="#DD6F30"/>
<path d="M14.7183 27.5424H16.3239V36.0169H14.7183V27.5424Z" fill="#DD6F30"/>
<path d="M16.3239 38.5593H14.7183V46.6102H16.3239V38.5593Z" fill="#DD6F30"/>
<path d="M17.3944 38.5593H19V46.6102H17.3944V38.5593Z" fill="#DD6F30"/>
<path d="M6.69014 66.5254H8.02816L12.0422 31.3559L6.69014 66.5254Z" fill="#DD6F30"/>
<path d="M4.01408 61.017H5.35211L12.0422 25.4237L4.01408 61.017Z" fill="#DD6F30"/>
<path d="M13.9155 0.847458L14.9859 3.81356L3.47887 54.661H0L13.9155 0.847458Z" fill="#DD6F30"/>
</svg>
